[img]http://www.shotpix.com/images/69020119235680452806.jpg[/img]


*******************************************************************************
  Kung Fu Panda 2-[2011]-720p-BlueRay-Esubs-SiNiSTER                 
*******************************************************************************

-------------------------------------------------------------------------------
                              General Information
-------------------------------------------------------------------------------

Unique ID                        : 255175163355394695219604362157326239404 (0xBFF8F2E5ABDA48E699839329F00A86AC)
Complete name                    : D:\Kung Fu Panda 2-[2011]-720p-BlueRay-Esubs-SiNiSTER\Kung Fu Panda 2-[2011]-720p-BlueRay-Esubs-SiNiSTER.mkv
Format                           : Matroska
File size                        : 1.05 GiB
Duration                         : 1h 30mn
Overall bit rate                 : 1 663 Kbps
Movie name                       : Kung Fu Panda 2-[2011]-720p-BlueRay-Esubs-SiNiSTER
Encoded date                     : UTC 2011-10-16 07:57:36
Writing application              : mkvmerge v4.3.0 ('Escape from the Island') built on Sep  5 2010 10:30:51
Writing library                  : libebml v1.0.0 + libmatroska v1.0.0
Encoder                          : Wolfmaner

[img]http://www.pix2links.com/images/20349311072267311198.png[/img]

Video
ID                               : 1
Format                           : AVC
Format/Info                      : Advanced Video Codec
Format profile                   : Main@L3.1
Format settings, CABAC           : Yes
Format settings, ReFrames        : 4 frames
Format settings, GOP             : M=3, N=54
Muxing mode                      : Header stripping
Codec ID                         : V_MPEG4/ISO/AVC
Duration                         : 1h 30mn
Bit rate                         : 1 470 Kbps
Width                            : 1 280 pixels
Height                           : 544 pixels
Display aspect ratio             : 2.35:1
Frame rate mode                  : Variable
Frame rate                       : 23.810 fps
Color space                      : YUV
Chroma subsampling               : 4:2:0
Bit depth                        : 8 bits
Scan type                        : Progressive
Bits/(Pixel*Frame)               : 0.089
Stream size                      : 930 MiB (86%)
Title                            : Kung Fu Panda 2-[2011]-720p-BlueRay-Esubs-SiNiSTER
Writing library                  : x264 core 112
Encoding settings                : cabac=1 / ref=2 / deblock=1:0:0 / analyse=0x1:0x111 / me=hex / subme=6 / psy=1 / psy_rd=1.00:0.00 / mixed_ref=0 / me_range=16 / chroma_me=1 / trellis=0 / 8x8dct=0 / cqm=0 / deadzone=21,11 / fast_pskip=1 / chroma_qp_offset=-2 / threads=1 / sliced_threads=0 / nr=0 / decimate=1 / interlaced=0 / constrained_intra=0 / bframes=2 / b_pyramid=2 / b_adapt=1 / b_bias=0 / direct=1 / weightb=0 / open_gop=0 / weightp=2 / keyint=240 / keyint_min=23 / scenecut=40 / intra_refresh=0 / rc_lookahead=40 / rc=2pass / mbtree=1 / bitrate=1470 / ratetol=1.0 / qcomp=0.60 / qpmin=3 / qpmax=51 / qpstep=4 / cplxblur=20.0 / qblur=0.5 / ip_ratio=1.40 / aq=1:1.00
Color primaries                  : BT.709-5, BT.1361, IEC 61966-2-4, SMPTE RP177
Transfer characteristics         : BT.709-5, BT.1361
Matrix coefficients              : BT.709-5, BT.1361, IEC 61966-2-4 709, SMPTE RP177



[img]http://www.pix2links.com/images/97620169951974180344.png[/img]

Audio
ID                               : 3
Format                           : AC-3
Format/Info                      : Audio Coding 3
Mode extension                   : CM (complete main)
Muxing mode                      : Header stripping
Codec ID                         : A_AC3
Duration                         : 1h 30mn
Bit rate mode                    : Constant
Bit rate                         : 192 Kbps
Channel(s)                       : 2 channels
Channel positions                : Front: L R
Sampling rate                    : 48.0 KHz
Bit depth                        : 16 bits
Compression mode                 : Lossy
Stream size                      : 124 MiB (12%)
Title                            : Kung Fu Panda 2-[2011]-720p-BlueRay-Esubs-SiNiSTER


[color=green][size=6]Subtitle[/size][/color]

Text
ID                               : 2
Format                           : UTF-8
Codec ID                         : S_TEXT/UTF8
Codec ID/Info                    : UTF-8 Plain Text
Title                            : Kung Fu Panda 2-[2011]-720p-BlueRay-Esubs-SiNiSTER









Greets:
DarkScene,HDScene,Noir,Chaos,CrEwSaDe,blackjesus,ViSiON,HDLiTE,UnKnOwN,EP1C,IMAGiNE,
FLAWL3SS,Rx,ELEKTRI4KA,CiNEDUB,BDK,SAFCuk009,HiVE-CM8..... and everybody else we 
respect.. u know who u are

-------------------------------------------------------------------------------
                               Post Information
-------------------------------------------------------------------------------
Encoded by...........: SiNiSTER
 
Have sumthing to offer..looking for suppliers... cammers,cams,screeners, audio
supplier.. and any pre retail DVD/BR any RC...if u can provide any email us at
sinister@hushmail.me


-------------------------------------------------------------------------------
                                 ScreenShots
-------------------------------------------------------------------------------

[img]http://www.shotpix.com/images/25033396874012676337.png[/img]

[img]http://www.shotpix.com/images/70268589766613034418.png[/img]

[img]http://www.shotpix.com/images/02109417965249475045.png[/img]

[img]http://www.shotpix.com/images/90262296888388031256.png[/img]

[img]http://www.shotpix.com/images/81361959687903942428.png[/img]

[img]http://www.shotpix.com/images/56540225762787693807.png[/img]

[img]http://www.shotpix.com/images/91030356148056576119.png[/img]

[img]http://www.shotpix.com/images/84828015440945921206.png[/img]

[img]http://www.shotpix.com/images/20623230451531771782.png[/img]

[img]http://www.shotpix.com/images/89996750467659135263.png[/img]

[img]http://www.shotpix.com/images/52976950525195814852.png[/img]


Enjoy guysss :P

-------------------------------------------------------------------------------
Generated with Cool NFO Creator - http://fly.to/coolbeans
-------------------------------------------------------------------------------

[img]http://www.pix2links.com/images/33502453931372952618.gif[/img]

[color=red][size=5]Guys Sample is Included in the torrent so plz download it first to check the quality[/size][/color]


:rolleyes: